<?xml version="1.0" encoding="UTF-8" standalone="no"?>
<!-- Created with Inkscape (http://www.inkscape.org/) -->

<svg
   width="450"
   height="150"
   viewBox="0 0 119.06256 39.687503"
   version="1.1"
   id="svg5"
   inkscape:version="1.1 (c68e22c387, 2021-05-23)"
   sodipodi:docname="4mlogo.svg"
   xmlns:inkscape="http://www.inkscape.org/namespaces/inkscape"
   xmlns:sodipodi="http://sodipodi.sourceforge.net/DTD/sodipodi-0.dtd"
   xmlns="http://www.w3.org/2000/svg"
   xmlns:svg="http://www.w3.org/2000/svg">
  <sodipodi:namedview
     id="namedview7"
     pagecolor="#ffffff"
     bordercolor="#666666"
     borderopacity="1.0"
     inkscape:pageshadow="2"
     inkscape:pageopacity="0.0"
     inkscape:pagecheckerboard="0"
     inkscape:document-units="px"
     showgrid="true"
     inkscape:snap-grids="true"
     showguides="false"
     inkscape:zoom="1.7050781"
     inkscape:cx="62.460481"
     inkscape:cy="129.31959"
     inkscape:window-width="2560"
     inkscape:window-height="1377"
     inkscape:window-x="-8"
     inkscape:window-y="-8"
     inkscape:window-maximized="1"
     inkscape:current-layer="layer1"
     width="511px"
     height="300px">
    <inkscape:grid
       type="xygrid"
       id="grid249" />
  </sodipodi:namedview>
  <defs
     id="defs2" />
  <g
     inkscape:groupmode="layer"
     id="layer3"
     inkscape:label="lines"
     style="display:inline">
    <path
       style="display:inline;opacity:1;fill:none;stroke:#000000;stroke-width:0.209021;stroke-linecap:butt;stroke-linejoin:miter;stroke-miterlimit:4;stroke-dasharray:none;stroke-opacity:1"
       d="m -1.6783084,26.740266 c 136.4438884,0 136.4438884,0 136.4438884,0"
       id="path16061-1-3" />
    <path
       style="display:inline;opacity:1;fill:none;stroke:#000000;stroke-width:0.209021;stroke-linecap:butt;stroke-linejoin:miter;stroke-miterlimit:4;stroke-dasharray:none;stroke-opacity:1"
       d="m -3.0030055,18.811592 c 136.4438755,0 136.4438755,0 136.4438755,0"
       id="path16061-1-3-1" />
    <path
       style="display:inline;opacity:1;fill:none;stroke:#000000;stroke-width:0.209021;stroke-linecap:butt;stroke-linejoin:miter;stroke-miterlimit:4;stroke-dasharray:none;stroke-opacity:1"
       d="m -1.6783084,14.847254 c 136.4438884,0 136.4438884,0 136.4438884,0"
       id="path16061-1-3-5" />
    <path
       style="display:inline;opacity:1;fill:none;stroke:#000000;stroke-width:0.209021;stroke-linecap:butt;stroke-linejoin:miter;stroke-miterlimit:4;stroke-dasharray:none;stroke-opacity:1"
       d="m -1.6783084,10.882918 c 136.4438884,0 136.4438884,0 136.4438884,0"
       id="path16061-1-3-5-1" />
    <path
       style="display:inline;opacity:1;fill:none;stroke:#000000;stroke-width:0.209021;stroke-linecap:butt;stroke-linejoin:miter;stroke-miterlimit:4;stroke-dasharray:none;stroke-opacity:1"
       d="m -1.6783084,30.70461 c 136.1788784,0 136.1788784,0 136.1788784,0"
       id="path16061-1-38" />
    <path
       style="display:inline;opacity:1;fill:none;stroke:#000000;stroke-width:0.209021;stroke-linecap:butt;stroke-linejoin:miter;stroke-miterlimit:4;stroke-dasharray:none;stroke-opacity:1"
       d="m -1.6783084,6.9185737 c 136.1788784,0 136.1788784,0 136.1788784,0"
       id="path16061-1-38-0" />
    <circle
       id="path20729"
       style="display:inline;fill:#ffdd55;stroke:#000000;stroke-width:0.264583"
       cx="17.729086"
       cy="49.111374"
       r="0.0051672477" />
    <path
       style="display:inline;opacity:1;fill:none;stroke:#000000;stroke-width:0.209021;stroke-linecap:butt;stroke-linejoin:miter;stroke-miterlimit:4;stroke-dasharray:none;stroke-opacity:1"
       d="m -1.9432148,23.040807 c 136.4441348,0 136.4441348,0 136.4441348,0"
       id="path16061-1-3-2" />
  </g>
  <g
     inkscape:groupmode="layer"
     id="layer5"
     inkscape:label="text" />
  <g
     inkscape:groupmode="layer"
     id="layer4"
     inkscape:label="4m shadow"
     style="display:inline">
    <path
       style="display:inline;opacity:0.56;fill:#1a1a1a;stroke-width:0.155174"
       d="m 41.432816,34.192328 c 0,-0.144828 0.146553,-0.232762 0.387935,-0.232762 0.241382,0 0.387935,-0.08793 0.387935,-0.232759 0,-0.129313 -0.137933,-0.232762 -0.310348,-0.232762 -0.247037,0 -0.31,-0.102881 -0.30864,-0.504314 0.0031,-0.914864 0.186672,-1.668116 0.40653,-1.668116 0.116853,0 0.212458,-0.104744 0.212458,-0.232762 0,-0.128019 -0.103407,-0.232762 -0.229791,-0.232762 -0.179485,0 -0.212222,-0.144381 -0.14954,-0.659487 0.0711,-0.584296 1.385152,-14.658711 1.553803,-16.642382 0.03628,-0.426728 0.136835,-1.613808 0.223454,-2.637955 0.08662,-1.0241463 0.198131,-2.1937693 0.247798,-2.5991603 l 0.09031,-0.737074 h 6.10882 6.108821 l 0.170389,0.659487 c 0.09372,0.36272 0.211461,0.799145 0.261658,0.969836 0.0502,0.17069 0.103348,0.415091 0.118117,0.543107 0.01476,0.128019 0.07317,0.3375053 0.129779,0.4655213 0.05661,0.128019 0.763584,2.632189 1.571056,5.564823 0.807471,2.932634 1.505225,5.369158 1.550564,5.414497 0.04534,0.04534 0.117877,-0.01484 0.161195,-0.133742 0.124915,-0.342863 3.014133,-10.786181 3.376147,-12.2033483 l 0.327017,-1.280181 h 7.966223 7.966223 l -0.0016,0.504314 c -0.0036,1.059545 -0.180205,1.668116 -0.484116,1.668116 -0.159525,0 -0.290047,0.06983 -0.290047,0.155176 0,0.08534 0.145793,0.1551733 0.323988,0.1551733 0.286263,0 0.313949,0.06775 0.237773,0.5819 -0.04742,0.320048 -0.131591,1.123072 -0.187047,1.784499 -0.05545,0.661429 -0.157406,1.202597 -0.226558,1.202597 -0.06915,0 -0.09577,0.366599 -0.05915,0.814663 0.03662,0.448064 -0.335663,5.109093 -0.827304,10.357845 l -0.893885,9.543185 -5.468448,0.04078 c -3.208991,0.02392 -5.468445,-0.01754 -5.468445,-0.100338 0,-0.215426 1.063043,-9.788154 1.162436,-10.467766 0.06262,-0.428149 0.03418,-0.578532 -0.100901,-0.533506 -0.103452,0.03448 -1.279293,2.53728 -2.61298,5.561767 l -2.424886,5.499066 -2.416206,0.04264 c -2.048648,0.03616 -2.430021,0.0066 -2.507004,-0.193969 -0.06242,-0.16265 0.0047,-0.236609 0.21468,-0.236609 0.168087,0 0.30548,-0.104685 0.30548,-0.232759 0,-0.142738 -0.145148,-0.232762 -0.375285,-0.232762 -0.323882,0 -0.4211,-0.137684 -0.709808,-1.005253 -0.183989,-0.552889 -0.289722,-1.146429 -0.234956,-1.318977 0.06526,-0.205605 0.02912,-0.315433 -0.104851,-0.318685 -0.128604,-0.0031 -0.663025,-1.413822 -1.440863,-3.803407 -0.68004,-2.089145 -1.308193,-3.774527 -1.395894,-3.745293 -0.130651,0.04355 -0.891786,5.760291 -1.078018,8.096771 -0.02721,0.341381 -0.102026,1.161862 -0.166257,1.823291 l -0.116784,1.202595 h -5.490438 c -4.776938,0 -5.490438,-0.03025 -5.490438,-0.232759 z"
       id="path16695" />
    <path
       style="display:inline;opacity:0.56;fill:#1a1a1a;stroke-width:0.155174"
       d="m 28.314227,34.721495 c 0.04913,-0.128019 0.141285,-0.232762 0.204801,-0.232762 0.06352,0 0.108416,-0.331684 0.09978,-0.737074 -0.0087,-0.405392 0.03983,-0.998931 0.107709,-1.318977 l 0.123413,-0.5819 h -9.31746 c -7.349099,0 -9.31802,-0.04098 -9.320117,-0.193969 -0.0015,-0.106683 0.118405,-1.29376 0.266371,-2.637954 0.260126,-2.3631 0.280756,-2.443986 0.623355,-2.443986 0.211505,0 0.354324,-0.09382 0.354324,-0.232762 0,-0.134006 -0.140154,-0.232759 -0.330339,-0.232759 -0.303765,0 -0.322817,-0.0593 -0.236825,-0.737076 0.05143,-0.405389 0.1399,-1.208416 0.196594,-1.784498 0.05669,-0.576083 0.167654,-1.047422 0.246578,-1.047422 0.07892,0 0.121653,-0.132813 0.09495,-0.29514 -0.03455,-0.210042 0.421246,-0.707906 1.580777,-1.726679 0.896129,-0.787347 2.112082,-1.859068 2.702118,-2.381607 6.725928,-5.956499 8.432607,-7.434192 8.66436,-7.501859 0.149355,-0.04361 0.277133,-0.15843 0.283951,-0.255159 0.0068,-0.09673 0.67354,-0.7519513 1.481603,-1.4560523 l 1.469208,-1.280181 h 7.208123 7.208126 v 0.396999 c 0,0.21835 -0.07265,1.038831 -0.161446,1.823292 -0.236926,2.0931293 -1.263007,12.0045003 -1.336426,12.9091483 -0.03463,0.426728 -0.23549,2.442197 -0.446352,4.478821 -0.21086,2.036623 -0.383382,3.799782 -0.383382,3.918136 0,0.118351 -0.139655,0.215183 -0.310345,0.215183 -0.172416,0 -0.310349,0.103452 -0.310349,0.232762 0,0.128018 0.11484,0.232762 0.255199,0.232762 0.221255,0 0.2422,0.139221 0.157462,1.04666 -0.05376,0.575661 -0.168596,1.070276 -0.255199,1.099145 -0.216749,0.07225 -0.198578,0.45258 0.02519,0.527166 0.100457,0.03349 0.131249,0.144047 0.06843,0.245692 -0.08488,0.137335 -1.525746,0.184809 -5.608857,0.184809 -4.820372,0 -5.48368,-0.02856 -5.405321,-0.232759 z M 31.684638,21.57052 c 0.279424,-7.253478 0.294574,-8.185415 0.133059,-8.185415 -0.133498,0 -3.679743,2.983826 -5.697375,4.793796 -0.256036,0.229684 -1.824597,1.601745 -3.48569,3.049021 l -3.020169,2.631411 4.339146,0.08129 c 2.38653,0.04471 5.080462,0.09708 5.986517,0.116379 l 1.647373,0.03509 z"
       id="path16656" />
  </g>
  <g
     inkscape:groupmode="layer"
     id="layer2"
     inkscape:label="4"
     style="display:inline">
    <path
       style="display:inline;opacity:0.97;fill:#ffcc00;stroke-width:0.155174"
       d="m 25.403803,31.811074 c 0.04913,-0.128019 0.141285,-0.232762 0.204801,-0.232762 0.06352,0 0.108416,-0.331684 0.09978,-0.737074 -0.0087,-0.405392 0.03983,-0.998931 0.107709,-1.318977 l 0.123413,-0.5819 h -9.31746 c -7.3490996,0 -9.3180192,-0.04098 -9.3201162,-0.193969 -0.0015,-0.106683 0.118405,-1.29376 0.2663707,-2.637954 0.260126,-2.3631 0.280756,-2.443986 0.6233533,-2.443986 0.211505,0 0.3543248,-0.09382 0.3543248,-0.232762 0,-0.134006 -0.1401548,-0.232759 -0.3303398,-0.232759 -0.303764,0 -0.322816,-0.0593 -0.236824,-0.737076 0.05143,-0.405389 0.1399,-1.208416 0.196593,-1.784498 0.05669,-0.576083 0.167654,-1.047422 0.2465788,-1.047422 0.07892,0 0.121653,-0.132813 0.09495,-0.29514 -0.03455,-0.210042 0.421246,-0.707906 1.5807764,-1.726679 0.896128,-0.787347 2.112082,-1.859068 2.702118,-2.381607 6.725929,-5.9564993 8.432608,-7.4341923 8.664361,-7.5018593 0.149355,-0.04361 0.277133,-0.15843 0.283951,-0.255159 0.0068,-0.09673 0.67354,-0.751951 1.481603,-1.456052 l 1.469208,-1.280181 h 7.208123 7.208126 v 0.396999 c 0,0.21835 -0.07265,1.038831 -0.161446,1.823292 -0.236926,2.093129 -1.263007,12.0045003 -1.336426,12.9091483 -0.03463,0.426728 -0.23549,2.442197 -0.446352,4.478821 -0.21086,2.036623 -0.383382,3.799782 -0.383382,3.918136 0,0.118351 -0.139655,0.215183 -0.310345,0.215183 -0.172416,0 -0.310349,0.103452 -0.310349,0.232762 0,0.128018 0.11484,0.232762 0.255199,0.232762 0.221255,0 0.2422,0.139221 0.157462,1.04666 -0.05376,0.575661 -0.168596,1.070276 -0.255199,1.099145 -0.216749,0.07225 -0.198578,0.45258 0.02519,0.527166 0.100457,0.03349 0.131249,0.144047 0.06843,0.245692 -0.08488,0.137335 -1.525746,0.184809 -5.608857,0.184809 -4.820372,0 -5.48368,-0.02856 -5.405321,-0.232759 z m 3.370411,-13.150975 c 0.279424,-7.253478 0.294574,-8.185415 0.133059,-8.185415 -0.133498,0 -3.679743,2.983826 -5.697375,4.793796 -0.256036,0.229684 -1.824597,1.601745 -3.48569,3.049021 l -3.020169,2.631411 4.339146,0.08129 c 2.38653,0.04471 5.080462,0.09708 5.986517,0.116379 l 1.647373,0.03509 z"
       id="path16656-2" />
    <path
       style="display:inline;opacity:0.97;fill:#ffcc00;stroke-width:0.155174"
       d="m 38.522392,31.546496 c 0,-0.144828 0.146553,-0.232762 0.387935,-0.232762 0.241382,0 0.387935,-0.08793 0.387935,-0.232759 0,-0.129313 -0.137933,-0.232762 -0.310348,-0.232762 -0.247037,0 -0.31,-0.102881 -0.30864,-0.504314 0.0031,-0.914864 0.186672,-1.668116 0.40653,-1.668116 0.116853,0 0.212458,-0.104744 0.212458,-0.232762 0,-0.128019 -0.103407,-0.232762 -0.229791,-0.232762 -0.179485,0 -0.212222,-0.144381 -0.14954,-0.659487 0.0711,-0.584296 1.385152,-14.658711 1.553803,-16.642382 0.03628,-0.426728 0.136835,-1.6138083 0.223454,-2.6379553 0.08662,-1.024146 0.198131,-2.193769 0.247798,-2.59916 l 0.09031,-0.737074 h 6.10882 6.108821 l 0.170389,0.659487 c 0.09372,0.36272 0.211461,0.799145 0.261658,0.969836 0.0502,0.17069 0.103348,0.415091 0.118117,0.543107 0.01476,0.128019 0.07317,0.337505 0.129779,0.465521 0.05661,0.128019 0.763584,2.6321893 1.571056,5.5648233 0.807471,2.932634 1.505225,5.369158 1.550564,5.414497 0.04534,0.04534 0.117877,-0.01484 0.161195,-0.133742 0.124915,-0.342863 3.014133,-10.7861813 3.376147,-12.2033483 l 0.327017,-1.280181 h 7.966223 7.966223 l -0.0016,0.504314 c -0.0036,1.059545 -0.180205,1.668116 -0.484116,1.668116 -0.159525,0 -0.290047,0.06983 -0.290047,0.155176 0,0.08534 0.145793,0.155173 0.323988,0.155173 0.286263,0 0.313949,0.06775 0.237773,0.5819 -0.04742,0.320048 -0.131591,1.123072 -0.187047,1.784499 -0.05545,0.6614293 -0.157406,1.2025973 -0.226558,1.2025973 -0.06915,0 -0.09577,0.366599 -0.05915,0.814663 0.03662,0.448064 -0.335663,5.109093 -0.827304,10.357845 l -0.893885,9.543185 -5.468448,0.04078 c -3.208991,0.02392 -5.468445,-0.01754 -5.468445,-0.100338 0,-0.215426 1.063043,-9.788154 1.162436,-10.467766 0.06262,-0.428149 0.03418,-0.578532 -0.100901,-0.533506 -0.103452,0.03448 -1.279293,2.53728 -2.61298,5.561767 l -2.424886,5.499066 -2.416206,0.04264 c -2.048648,0.03616 -2.430021,0.0066 -2.507004,-0.193969 -0.06242,-0.16265 0.0047,-0.236609 0.21468,-0.236609 0.168087,0 0.30548,-0.104685 0.30548,-0.232759 0,-0.142738 -0.145148,-0.232762 -0.375285,-0.232762 -0.323882,0 -0.4211,-0.137684 -0.709808,-1.005253 -0.183989,-0.552889 -0.289722,-1.146429 -0.234956,-1.318977 0.06526,-0.205605 0.02912,-0.315433 -0.104851,-0.318685 -0.128604,-0.0031 -0.663025,-1.413822 -1.440863,-3.803407 -0.68004,-2.089145 -1.308193,-3.774527 -1.395894,-3.745293 -0.130651,0.04355 -0.891786,5.760291 -1.078018,8.096771 -0.02721,0.341381 -0.102026,1.161862 -0.166257,1.823291 l -0.116784,1.202595 h -5.490438 c -4.776938,0 -5.490438,-0.03025 -5.490438,-0.232759 z"
       id="path16695-8" />
  </g>
  <g
     inkscape:label="flame"
     inkscape:groupmode="layer"
     id="layer1"
     style="display:inline">
    <path
       style="opacity:0.95;fill:#ffcc00;stroke-width:0.155174"
       d="m 95.290637,7.9148499 c -0.560377,0.10168 -0.894547,0.32782 -1.862097,1.26015 -0.82803,0.7978903 -1.47742,1.2680201 -2.18085,1.5788201 -1.59937,0.70667 -3.837421,0.72348 -4.261428,0.032 -0.13985,-0.22806 -0.0584,-0.36975 0.487187,-0.8468998 l 0.655174,-0.5730203 -0.362177,-0.41047 -0.362187,-0.41048 -1.068834,1.0426703 C 85.747553,10.16109 85.144653,10.83459 84.995633,11.08431 c -1.03732,1.73812 -1.13968,1.84961 -2.16943,2.36276 -1.41499,0.70514 -1.92734,0.76653 -2.59907,0.31142 -0.79235,-0.53682 -1.24509,-1.29103 -1.24509,-2.07414 0,-0.54822 0.0818,-0.73036 0.47743,-1.06327 0.46608,-0.39218 0.46867,-0.40173 0.10908,-0.40173 -0.22909,0 -0.60026,0.24211 -0.98174,0.64037 -0.73319,0.76543 -1.87834,1.53206 -2.2885,1.53206 -0.16246,0 -0.68996,-0.2408 -1.17222,-0.53511 -0.48227,-0.29432 -1.06938,-0.58132 -1.3047,-0.6378 -0.57643,-0.13835 -1.20147,0.27442 -1.20147,0.79343 0,0.23007 -0.11103,0.42911 -0.27155,0.48678 -0.14936,0.0537 -0.38252,0.21106 -0.51815,0.34978 -0.22544,0.2306 -0.20264,0.72418 0.26587,5.75538 0.28185,3.02674 0.51502,5.555534 0.51815,5.619544 0.003,0.064 0.59922,0.11638 1.32466,0.11638 0.77586,0 1.31898,0.0639 1.31898,0.15517 0,0.0915 -0.54958,0.15517 -1.33838,0.15517 h -1.33837 l 0.0975,0.48753 c 0.0536,0.26814 0.37658,0.790303 0.71768,1.160343 0.34109,0.37004 0.62017,0.75895 0.62017,0.86424 0,0.17978 2.56486,2.7638 2.7433,2.7638 0.0454,0 0.29008,0.17457 0.54365,0.38794 0.40254,0.33871 0.60944,0.38793 1.63077,0.38793 h 1.16975 l -0.25061,-0.38247 c -0.35597,-0.54329 -0.31601,-0.99691 0.10181,-1.15576 0.19383,-0.0737 1.43328,-0.35066 2.75433,-0.61548 1.32106,-0.26482 2.64632,-0.55494 2.94502,-0.64471 1.005519,-0.30221 4.103507,-0.76411 5.146627,-0.76736 0.83447,-0.003 1.37461,0.12191 2.79313,0.64382 1.631541,0.60028 1.876337,0.64793 3.387948,0.65949 1.572531,0.012 1.688821,-0.0111 3.336232,-0.66438 0.93881,-0.37226 2.44013,-0.94474 3.33626,-1.27217 1.57272,-0.57466 1.60506,-0.59568 0.93104,-0.60519 -0.83211,-0.0118 -2.2084,-0.357893 -2.69769,-0.678483 -0.19285,-0.12637 -0.64393,-0.31763 -1.0024,-0.42502 -0.67881,-0.20338 -0.87899,-0.52435 -0.77404,-1.24114 0.0563,-0.3848 0.37589,-0.52457 1.5658,-0.68491 0.53401,-0.072 0.85599,-0.2243 1.16381,-0.55064 0.70189,-0.744174 1.95605,-0.977554 5.23593,-0.974334 l 2.79312,0.003 -1.44641,-0.27974 c -1.76689,-0.34172 -2.41301,-0.68138 -2.48528,-1.30649 -0.0288,-0.24905 -0.19287,-0.55124 -0.36461,-0.67154 -0.23164,-0.16224 -0.29007,-0.32966 -0.22631,-0.64845 0.0774,-0.38719 0.0367,-0.43777 -0.41126,-0.51085 -0.27347,-0.0446 -0.91618,-0.19299 -1.42825,-0.32974 -0.7501,-0.20031 -1.36143,-0.22883 -3.14561,-0.14676 -1.982604,0.0912 -2.246124,0.0733 -2.515801,-0.17075 -0.16568,-0.14994 -0.40674,-0.23213 -0.535677,-0.18265 -0.12894,0.0495 -0.28995,-0.009 -0.35782,-0.13052 -0.101947,-0.18218 -0.365377,-0.1954 -1.517041,-0.0761 -2.185611,0.22641 -3.284381,-0.0644 -3.658851,-0.96848 -0.26398,-0.63732 0.005,-1.12944 0.74185,-1.35633 0.32575,-0.10033 0.69124,-0.21432 0.8122,-0.25331 0.16761,-0.054 0.17684,-0.11396 0.0388,-0.252 -0.30685,-0.30686 -0.20163,-0.71871 0.24561,-0.96134 0.39749,-0.21565 0.29118,-0.23193 -1.55175,-0.23772 -1.58147,-0.005 -1.97847,-0.0494 -1.97847,-0.22164 0,-0.17512 0.61697,-0.22682 3.29745,-0.2763 l 3.297465,-0.0609 1.008624,-0.47633 c 0.554737,-0.26199 1.342591,-0.60189 1.750771,-0.75535 0.40818,-0.15346 0.7736,-0.32991 0.81205,-0.39211 0.11837,-0.19153 -3.052798,-0.59421 -3.991002,-0.50679 -1.786341,0.16644 -2.204528,-0.2304798 -1.574621,-1.4945301 0.220327,-0.44211 0.375087,-0.82293 0.343917,-0.84626 -0.0312,-0.0233 -0.363987,0.0133 -0.739607,0.0815 z"
       id="path19402-0" />
    <circle
       id="path20727"
       style="fill:#ffdd55;stroke:#000000;stroke-width:0.264583"
       cx="17.729086"
       cy="49.111374"
       r="0.0051672477" />
    <path
       style="fill:#ffdd55;stroke-width:0.264583"
       id="path20862"
       d="m 84.513762,18.132956 c -0.321146,-0.151473 -0.636796,-0.313512 -0.966046,-0.446854 -0.268074,-0.104188 -0.552157,-0.161587 -0.838325,-0.183785 -0.272558,-0.0064 -0.470842,-0.196895 -0.681289,-0.347761 -0.20107,-0.13731 -0.383873,-0.297209 -0.559353,-0.465269 -0.1392,-0.124474 -0.22915,-0.286944 -0.361931,-0.417404 -0.09684,-0.06427 -0.192514,-0.19045 -0.319392,-0.184656 -0.02376,0.0016 -0.0074,0.0031 -0.03649,-0.03297 0,0 -3.427015,2.020663 -3.427015,2.020663 v 0 c 0.06348,0.09658 0.02835,0.04592 0.10646,0.151225 0.0405,0.0387 0.07658,0.08349 0.132234,0.101955 0.01431,0.0047 0.03019,-0.0016 0.04524,-7.94e-4 0.05662,0.0033 0.09666,0.02935 0.137771,0.06783 0.163393,0.05584 0.202451,0.282321 0.348842,0.369938 0.187217,0.182139 0.379572,0.361328 0.602846,0.499218 0.04441,0.03382 0.08883,0.06765 0.133244,0.10147 0.04276,0.02971 0.08646,0.0581 0.128278,0.08912 0.164555,0.122057 0.306276,0.283876 0.514188,0.33043 0.266351,0.05189 0.546087,0.01931 0.807739,0.106307 0.320156,0.09906 0.623575,0.246097 0.917567,0.405722 0,0 3.31543,-2.164514 3.31543,-2.164514 z" />
    <path
       style="fill:#ffdd55;stroke-width:0.264583"
       id="path20897"
       d="m 84.40574,18.618254 c -0.354256,-0.231114 -0.744654,-0.396531 -1.13189,-0.563073 -0.257474,-0.115197 -0.52883,-0.190132 -0.807003,-0.232598 -0.234267,0.0047 -0.447196,-0.08748 -0.653121,-0.188989 -0.205915,-0.118007 -0.413025,-0.238628 -0.588867,-0.399301 -0.136536,-0.153064 -0.289177,-0.280059 -0.475311,-0.366647 -0.07671,-0.01648 -0.280099,-0.123404 -0.342289,-0.02952 -2.65e-4,0.0011 -7.94e-4,0.0019 -0.0011,0.0029 -1.17e-4,-0.0058 -2.33e-4,-0.01169 -2.65e-4,-0.01754 0,0 -3.477003,1.934996 -3.477003,1.934996 v 0 c 0.0579,0.128373 0.02402,0.06491 0.102854,0.189728 0.15521,0.17508 0.217993,0.182742 0.440319,0.165676 0.163108,0.0037 0.275077,0.06831 0.37768,0.198761 0.197072,0.195866 0.426154,0.340526 0.664877,0.481232 0.231793,0.130638 0.461991,0.276609 0.725757,0.333256 0.261115,0.0013 0.521536,0.02786 0.769041,0.117065 0.366,0.1319 0.737576,0.27514 1.056155,0.502129 0,0 3.340214,-2.128018 3.340214,-2.128018 z" />
  </g>
  <circle
     id="path33849"
     style="fill:#806600;stroke:#000000;stroke-width:0.264583"
     cx="-48.103855"
     cy="29.793358"
     r="0.0081642522" />
  <circle
     id="path33851"
     style="fill:#806600;stroke:#000000;stroke-width:0.264583"
     cx="-48.103855"
     cy="29.793358"
     r="0.0081642522" />
</svg>
